<svg xmlns="http://www.w3.org/2000/svg" viewBox="0 0 24 24" width="32" height="32" aria-hidden="true">
  <rect width="24" height="24" rx="4" fill="none"/>
  <g>
    <path d="M12 3a7 7 0 0 0-7 7c0 3.9 3.1 7 7 7 1.6 0 3.1-0.5 4.3-1.3 0.9-0.6 1.1-1.9 0.4-2.7-0.5-0.6-1.3-0.8-2-0.5C15.7 12.8 14 13 12 13a4 4 0 1 1 0-8z" fill="#3498db"/>
    <circle cx="6.5" cy="8.5" r="1.5" fill="#e74c3c"/>
    <circle cx="11.5" cy="6.5" r="1.5" fill="#f1c40f"/>
    <circle cx="16.5" cy="8.5" r="1.5" fill="#2ecc71"/>
  </g>
</svg>