<svg xmlns="http://www.w3.org/2000/svg" viewBox="0 0 24 24" width="32" height="32">
  <g fill="none" stroke="#ffffff" stroke-width="2" stroke-linecap="round" stroke-linejoin="round">
    <circle cx="12" cy="12" r="3"/>
    <path d="M19.4 15a1.65 1.65 0 0 0 .33 1.82l0 0a2 2 0 1 1-2.83 2.83l0 0a1.65 1.65 0 0 0-1.82-.33 1.65 1.65 0 0 0-1 1.51V21a2 2 0 0 1-4 0v0a1.65 1.65 0 0 0-1-1.51 1.65 1.65 0 0 0-1.82.33l0 0A2 2 0 1 1 2.27 18.8l0 0A1.65 1.65 0 0 0 2.6 16 1.65 1.65 0 0 0 2.3 14.2V12a2 2 0 0 1 0-4v0A1.65 1.65 0 0 0 2.6 6 1.65 1.65 0 0 0 2.27 3.2l0 0A2 2 0 1 1 5.1.37l0 0A1.65 1.65 0 0 0 6.92.7 1.65 1.65 0 0 0 8 2v0A2 2 0 0 1 12 2h0a2 2 0 0 1 4 0v0a1.65 1.65 0 0 0 1.08 1.3 1.65 1.65 0 0 0 1.82-.33l0 0A2 2 0 1 1 21.73 5.2l0 0A1.65 1.65 0 0 0 21.4 8 1.65 1.65 0 0 0 21.7 9.8V12a2 2 0 0 1 0 4z"/>
  </g>
</svg>